<?xml version="1.0" encoding="UTF-8" standalone="no"?>
<!DOCTYPE svg PUBLIC "-//W3C//DTD SVG 1.1//EN" "http://www.w3.org/Graphics/SVG/1.1/DTD/svg11.dtd">
<svg width="100%" height="100%" viewBox="0 0 93 80" version="1.1" xmlns="http://www.w3.org/2000/svg" xmlns:xlink="http://www.w3.org/1999/xlink" xml:space="preserve" xmlns:serif="http://www.serif.com/" style="fill-rule:evenodd;clip-rule:evenodd;">
    <g transform="matrix(1,0,0,1,1.4054,0)">
        <g transform="matrix(1,0,0,1,-111.377,-737.781)">
            <path d="M156.656,737.781C134.565,737.781 116.656,755.69 116.656,777.781C116.656,799.873 134.565,817.781 156.656,817.781C178.748,817.781 196.656,799.873 196.656,777.781C196.656,755.69 178.748,737.781 156.656,737.781ZM156.656,745.281C174.606,745.281 189.156,759.832 189.156,777.781C189.156,795.731 174.606,810.281 156.656,810.281C138.707,810.281 124.156,795.731 124.156,777.781C124.156,759.832 138.707,745.281 156.656,745.281Z" style="fill-opacity:0.96;fill-rule:nonzero;"/>
            <path d="M117.798,768.789C109.457,769.465 110.435,782.185 117.149,783.048" style="fill:none;fill-rule:nonzero;stroke:rgb(3,0,0);stroke-width:0.9px;"/>
            <path d="M195.11,785.813C203.451,785.137 202.472,772.416 195.759,771.554" style="fill:none;fill-rule:nonzero;stroke:rgb(3,0,0);stroke-width:0.9px;"/>
            <path d="M154.345,752.363C151.502,751.583 146.581,754.78 143.427,757.125C146.164,757.32 148.941,757.462 151.656,756.975C152.926,756.718 154.431,756.419 155.153,755.301C155.824,754.336 155.785,752.841 154.345,752.363Z" style="fill-rule:nonzero;"/>
            <path d="M143.455,757.242C149.442,757.72 154.482,757.651 155.568,754.995C155.192,759.195 147.255,758.11 143.455,757.242Z" style="fill-rule:nonzero;"/>
            <path d="M151.83,795.992C148.885,795.875 144.813,800.101 142.27,803.097C144.98,802.67 147.718,802.181 150.252,801.092C151.432,800.556 152.83,799.924 153.281,798.672C153.716,797.581 153.341,796.133 151.83,795.992Z" style="fill-rule:nonzero;"/>
            <path d="M142.323,803.206C148.263,802.319 153.158,801.113 153.616,798.28C154.199,802.457 146.221,803.193 142.323,803.206Z" style="fill-rule:nonzero;"/>
            <path d="M177.636,759.735C176.403,757.058 170.789,755.348 166.965,754.443C168.576,756.664 170.255,758.881 172.375,760.645C173.389,761.452 174.587,762.412 175.907,762.244C177.077,762.137 178.197,761.145 177.636,759.735Z" style="fill-rule:nonzero;"/>
            <path d="M166.893,754.54C170.38,759.43 173.676,763.243 176.408,762.365C172.952,764.781 168.674,758.007 166.893,754.54Z" style="fill-rule:nonzero;"/>
            <path d="M182.107,787.759C180.358,785.386 174.514,784.848 170.586,784.735C172.613,786.584 174.706,788.416 177.139,789.714C178.295,790.299 179.663,790.997 180.921,790.566C182.046,790.224 182.941,789.026 182.107,787.759Z" style="fill-rule:nonzero;"/>
            <path d="M170.535,784.845C174.939,788.928 178.939,791.996 181.437,790.583C178.54,793.648 172.98,787.879 170.535,784.845Z" style="fill-rule:nonzero;"/>
            <path d="M185.598,771.335C182.725,770.676 177.943,774.077 174.89,776.553C177.633,776.633 180.414,776.658 183.106,776.056C184.364,775.746 185.855,775.384 186.529,774.237C187.159,773.244 187.057,771.752 185.598,771.335Z" style="fill-rule:nonzero;"/>
            <path d="M174.923,776.669C180.925,776.894 185.957,776.613 186.931,773.913C186.732,778.125 178.756,777.376 174.923,776.669Z" style="fill-rule:nonzero;"/>
            <path d="M150.948,779.38C150.831,776.435 146.294,772.712 143.105,770.416C143.747,773.083 144.452,775.773 145.739,778.213C146.368,779.346 147.109,780.69 148.392,781.039C149.515,781.387 150.928,780.897 150.948,779.38Z" style="fill-rule:nonzero;"/>
            <path d="M143.001,770.478C144.358,776.328 145.949,781.111 148.81,781.343C144.693,782.256 143.324,774.362 143.001,770.478Z" style="fill-rule:nonzero;"/>
            <g transform="matrix(0.0401887,-0.0244059,0.0244059,0.0401887,111.498,755.633)">
                <path d="M301.697,529.246C327.781,518.858 353.864,516.836 379.947,513.017C375.365,520.359 370.369,527.701 361.979,535.043C342.892,542.743 321.233,549.158 299.089,555.33C299.643,546.95 299.698,539.071 301.697,529.246Z" style="fill-rule:nonzero;stroke:black;stroke-width:1px;"/>
                <path d="M297.93,528.957C296.951,537.393 296.404,543.935 296.191,556.199C269.868,563.662 257.388,556.951 242.865,550.403C251.013,539.327 258.473,527.562 264.311,514.176C275.346,520.129 286.167,527.371 297.93,528.957Z" style="fill-rule:nonzero;stroke:black;stroke-width:1px;"/>
                <path d="M238.807,548.954C233.443,550.976 220.033,536.908 209.826,529.246C219.89,516.234 231.963,506.568 244.314,497.367C250.117,503.233 255.746,509.796 262.282,512.727C255.275,525.62 248.081,538.327 238.807,548.954Z" style="fill-rule:nonzero;stroke:black;stroke-width:1px;"/>
                <path d="M207.797,526.928C200.629,519.981 195.493,504.504 192.147,488.383C210.362,491.72 224.982,491.463 240.256,491.86L241.995,495.628C229.97,504.937 218.408,514.675 207.797,526.928Z" style="fill-rule:nonzero;stroke:black;stroke-width:1px;"/>
                <path d="M191.857,486.064C189.666,469.819 197.943,457.381 203.74,444.041C216.811,461.078 229.406,472.88 241.706,481.427C240.823,484.035 240.955,487.513 240.836,489.252C225.333,489.424 208.905,488.208 191.857,486.064Z" style="fill-rule:nonzero;stroke:black;stroke-width:1px;"/>
                <path d="M205.769,441.722C214.441,431.243 226.95,425.368 239.387,419.407C242.208,440.235 244.184,459.247 251.559,474.761C248.078,475.818 245.95,477.681 243.155,479.398C231.868,471.539 219.374,458.855 205.769,441.722Z" style="fill-rule:nonzero;stroke:black;stroke-width:1px;"/>
                <path d="M242.285,418.537C254.301,412.911 269.945,414.542 284.019,413.031C281.254,434.053 275.974,457.592 279.671,472.153C268.733,470.706 261.631,472.328 254.457,473.892C246.032,457.936 245.897,437.244 242.285,418.537Z" style="fill-rule:nonzero;stroke:black;stroke-width:1px;"/>
                <path d="M303.313,412.656C297.848,412.661 292.297,412.777 286.625,413.031C283.938,434.547 278.954,459.521 282,472.438C313.086,489.202 346.294,480.393 379.656,469.844C393.825,466.205 409.311,470.072 420.531,469.531C435.252,468.156 460.989,446.085 499.344,443.156L462.25,443.156C450.962,441.455 439.064,440.133 427.938,438.563C427.775,442.561 424.507,445.75 420.469,445.75C416.327,445.75 412.969,442.392 412.969,438.25C412.969,437.529 413.06,436.847 413.25,436.188C404.294,434.501 396.44,432.445 390.656,429.563C414.323,429.968 438.23,427.048 450.375,423.469C400.061,423.139 356.134,412.612 303.313,412.656ZM413.25,436.188C417.89,437.061 422.838,437.843 427.938,438.563C427.942,438.46 427.969,438.354 427.969,438.25C427.969,434.108 424.611,430.75 420.469,430.75C417.047,430.75 414.151,433.056 413.25,436.188L413.25,436.188Z" style="fill-opacity:0.96;fill-rule:nonzero;stroke:black;stroke-width:1px;"/>
                <path d="M412.182,469.487C427.809,505.086 441.443,540.684 451.481,576.283" style="fill:none;fill-rule:nonzero;stroke:black;stroke-width:1.8px;stroke-linecap:round;"/>
                <path d="M422.442,467.836C453.599,491.089 483.022,515.325 509.318,541.335" style="fill:none;fill-rule:nonzero;stroke:black;stroke-width:1.8px;stroke-linecap:round;"/>
                <path d="M431.009,464.104C455.053,478.731 477.759,484.519 498.051,489.869" style="fill:none;fill-rule:nonzero;stroke:black;stroke-width:1.8px;stroke-linecap:round;"/>
                <g transform="matrix(0.964953,0,0,0.916706,15.4191,65.0566)">
                    <path d="M425.682,407.69C425.682,411.003 423.13,413.689 419.982,413.689C416.834,413.689 414.282,411.003 414.282,407.69C414.282,404.376 416.834,401.69 419.982,401.69C423.13,401.69 425.682,404.376 425.682,407.69Z" style="fill-opacity:0.96;fill-rule:nonzero;"/>
                </g>
                <path d="M438.495,461.086C461.369,468.411 481.083,467.622 498.743,467.089" style="fill:none;fill-rule:nonzero;stroke:black;stroke-width:1.8px;stroke-linecap:round;"/>
            </g>
            <g transform="matrix(0.0322304,0.0342342,-0.0342342,0.0322304,170.202,739.463)">
                <path d="M301.697,529.246C327.781,518.858 353.864,516.836 379.947,513.017C375.365,520.359 370.369,527.701 361.979,535.043C342.892,542.743 321.233,549.158 299.089,555.33C299.643,546.95 299.698,539.071 301.697,529.246Z" style="fill-rule:nonzero;stroke:black;stroke-width:1px;"/>
                <path d="M297.93,528.957C296.951,537.393 296.404,543.935 296.191,556.199C269.868,563.662 257.388,556.951 242.865,550.403C251.013,539.327 258.473,527.562 264.311,514.176C275.346,520.129 286.167,527.371 297.93,528.957Z" style="fill-rule:nonzero;stroke:black;stroke-width:1px;"/>
                <path d="M238.807,548.954C233.443,550.976 220.033,536.908 209.826,529.246C219.89,516.234 231.963,506.568 244.314,497.367C250.117,503.233 255.746,509.796 262.282,512.727C255.275,525.62 248.081,538.327 238.807,548.954Z" style="fill-rule:nonzero;stroke:black;stroke-width:1px;"/>
                <path d="M207.797,526.928C200.629,519.981 195.493,504.504 192.147,488.383C210.362,491.72 224.982,491.463 240.256,491.86L241.995,495.628C229.97,504.937 218.408,514.675 207.797,526.928Z" style="fill-rule:nonzero;stroke:black;stroke-width:1px;"/>
                <path d="M191.857,486.064C189.666,469.819 197.943,457.381 203.74,444.041C216.811,461.078 229.406,472.88 241.706,481.427C240.823,484.035 240.955,487.513 240.836,489.252C225.333,489.424 208.905,488.208 191.857,486.064Z" style="fill-rule:nonzero;stroke:black;stroke-width:1px;"/>
                <path d="M205.769,441.722C214.441,431.243 226.95,425.368 239.387,419.407C242.208,440.235 244.184,459.247 251.559,474.761C248.078,475.818 245.95,477.681 243.155,479.398C231.868,471.539 219.374,458.855 205.769,441.722Z" style="fill-rule:nonzero;stroke:black;stroke-width:1px;"/>
                <path d="M242.285,418.537C254.301,412.911 269.945,414.542 284.019,413.031C281.254,434.053 275.974,457.592 279.671,472.153C268.733,470.706 261.631,472.328 254.457,473.892C246.032,457.936 245.897,437.244 242.285,418.537Z" style="fill-rule:nonzero;stroke:black;stroke-width:1px;"/>
                <path d="M303.313,412.656C297.848,412.661 292.297,412.777 286.625,413.031C283.938,434.547 278.954,459.521 282,472.438C313.086,489.202 346.294,480.393 379.656,469.844C393.825,466.205 409.311,470.072 420.531,469.531C435.252,468.156 460.989,446.085 499.344,443.156L462.25,443.156C450.962,441.455 439.064,440.133 427.938,438.563C427.775,442.561 424.507,445.75 420.469,445.75C416.327,445.75 412.969,442.392 412.969,438.25C412.969,437.529 413.06,436.847 413.25,436.188C404.294,434.501 396.44,432.445 390.656,429.563C414.323,429.968 438.23,427.048 450.375,423.469C400.061,423.139 356.134,412.612 303.313,412.656ZM413.25,436.188C417.89,437.061 422.838,437.843 427.938,438.563C427.942,438.46 427.969,438.354 427.969,438.25C427.969,434.108 424.611,430.75 420.469,430.75C417.047,430.75 414.151,433.056 413.25,436.188L413.25,436.188Z" style="fill-opacity:0.96;fill-rule:nonzero;stroke:black;stroke-width:1px;"/>
                <path d="M412.182,469.487C427.809,505.086 441.443,540.684 451.481,576.283" style="fill:none;fill-rule:nonzero;stroke:black;stroke-width:1.8px;stroke-linecap:round;"/>
                <path d="M422.442,467.836C453.599,491.089 483.022,515.325 509.318,541.335" style="fill:none;fill-rule:nonzero;stroke:black;stroke-width:1.8px;stroke-linecap:round;"/>
                <path d="M431.009,464.104C455.053,478.731 477.759,484.519 498.051,489.869" style="fill:none;fill-rule:nonzero;stroke:black;stroke-width:1.8px;stroke-linecap:round;"/>
                <g transform="matrix(0.964953,0,0,0.916706,15.4191,65.0566)">
                    <path d="M425.682,407.69C425.682,411.003 423.13,413.689 419.982,413.689C416.834,413.689 414.282,411.003 414.282,407.69C414.282,404.376 416.834,401.69 419.982,401.69C423.13,401.69 425.682,404.376 425.682,407.69Z" style="fill-opacity:0.96;fill-rule:nonzero;"/>
                </g>
                <path d="M438.495,461.086C461.369,468.411 481.083,467.622 498.743,467.089" style="fill:none;fill-rule:nonzero;stroke:black;stroke-width:1.8px;stroke-linecap:round;"/>
            </g>
            <g transform="matrix(0.0406258,0.0236712,-0.0236712,0.0406258,134.831,761.027)">
                <path d="M301.697,529.246C327.781,518.858 353.864,516.836 379.947,513.017C375.365,520.359 370.369,527.701 361.979,535.043C342.892,542.743 321.233,549.158 299.089,555.33C299.643,546.95 299.698,539.071 301.697,529.246Z" style="fill-rule:nonzero;stroke:black;stroke-width:1px;"/>
                <path d="M297.93,528.957C296.951,537.393 296.404,543.935 296.191,556.199C269.868,563.662 257.388,556.951 242.865,550.403C251.013,539.327 258.473,527.562 264.311,514.176C275.346,520.129 286.167,527.371 297.93,528.957Z" style="fill-rule:nonzero;stroke:black;stroke-width:1px;"/>
                <path d="M238.807,548.954C233.443,550.976 220.033,536.908 209.826,529.246C219.89,516.234 231.963,506.568 244.314,497.367C250.117,503.233 255.746,509.796 262.282,512.727C255.275,525.62 248.081,538.327 238.807,548.954Z" style="fill-rule:nonzero;stroke:black;stroke-width:1px;"/>
                <path d="M207.797,526.928C200.629,519.981 195.493,504.504 192.147,488.383C210.362,491.72 224.982,491.463 240.256,491.86L241.995,495.628C229.97,504.937 218.408,514.675 207.797,526.928Z" style="fill-rule:nonzero;stroke:black;stroke-width:1px;"/>
                <path d="M191.857,486.064C189.666,469.819 197.943,457.381 203.74,444.041C216.811,461.078 229.406,472.88 241.706,481.427C240.823,484.035 240.955,487.513 240.836,489.252C225.333,489.424 208.905,488.208 191.857,486.064Z" style="fill-rule:nonzero;stroke:black;stroke-width:1px;"/>
                <path d="M205.769,441.722C214.441,431.243 226.95,425.368 239.387,419.407C242.208,440.235 244.184,459.247 251.559,474.761C248.078,475.818 245.95,477.681 243.155,479.398C231.868,471.539 219.374,458.855 205.769,441.722Z" style="fill-rule:nonzero;stroke:black;stroke-width:1px;"/>
                <path d="M242.285,418.537C254.301,412.911 269.945,414.542 284.019,413.031C281.254,434.053 275.974,457.592 279.671,472.153C268.733,470.706 261.631,472.328 254.457,473.892C246.032,457.936 245.897,437.244 242.285,418.537Z" style="fill-rule:nonzero;stroke:black;stroke-width:1px;"/>
                <path d="M303.313,412.656C297.848,412.661 292.297,412.777 286.625,413.031C283.938,434.547 278.954,459.521 282,472.438C313.086,489.202 346.294,480.393 379.656,469.844C393.825,466.205 409.311,470.072 420.531,469.531C435.252,468.156 460.989,446.085 499.344,443.156L462.25,443.156C450.962,441.455 439.064,440.133 427.938,438.563C427.775,442.561 424.507,445.75 420.469,445.75C416.327,445.75 412.969,442.392 412.969,438.25C412.969,437.529 413.06,436.847 413.25,436.188C404.294,434.501 396.44,432.445 390.656,429.563C414.323,429.968 438.23,427.048 450.375,423.469C400.061,423.139 356.134,412.612 303.313,412.656ZM413.25,436.188C417.89,437.061 422.838,437.843 427.938,438.563C427.942,438.46 427.969,438.354 427.969,438.25C427.969,434.108 424.611,430.75 420.469,430.75C417.047,430.75 414.151,433.056 413.25,436.188L413.25,436.188Z" style="fill-opacity:0.96;fill-rule:nonzero;stroke:black;stroke-width:1px;"/>
                <path d="M412.182,469.487C427.809,505.086 441.443,540.684 451.481,576.283" style="fill:none;fill-rule:nonzero;stroke:black;stroke-width:1.8px;stroke-linecap:round;"/>
                <path d="M422.442,467.836C453.599,491.089 483.022,515.325 509.318,541.335" style="fill:none;fill-rule:nonzero;stroke:black;stroke-width:1.8px;stroke-linecap:round;"/>
                <path d="M431.009,464.104C455.053,478.731 477.759,484.519 498.051,489.869" style="fill:none;fill-rule:nonzero;stroke:black;stroke-width:1.8px;stroke-linecap:round;"/>
                <g transform="matrix(0.964953,0,0,0.916706,15.4191,65.0566)">
                    <path d="M425.682,407.69C425.682,411.003 423.13,413.689 419.982,413.689C416.834,413.689 414.282,411.003 414.282,407.69C414.282,404.376 416.834,401.69 419.982,401.69C423.13,401.69 425.682,404.376 425.682,407.69Z" style="fill-opacity:0.96;fill-rule:nonzero;"/>
                </g>
                <path d="M438.495,461.086C461.369,468.411 481.083,467.622 498.743,467.089" style="fill:none;fill-rule:nonzero;stroke:black;stroke-width:1.8px;stroke-linecap:round;"/>
            </g>
            <g transform="matrix(-0.0436565,-0.0174612,0.0174612,-0.0436565,170.402,826.052)">
                <path d="M301.697,529.246C327.781,518.858 353.864,516.836 379.947,513.017C375.365,520.359 370.369,527.701 361.979,535.043C342.892,542.743 321.233,549.158 299.089,555.33C299.643,546.95 299.698,539.071 301.697,529.246Z" style="fill-rule:nonzero;stroke:black;stroke-width:1px;"/>
                <path d="M297.93,528.957C296.951,537.393 296.404,543.935 296.191,556.199C269.868,563.662 257.388,556.951 242.865,550.403C251.013,539.327 258.473,527.562 264.311,514.176C275.346,520.129 286.167,527.371 297.93,528.957Z" style="fill-rule:nonzero;stroke:black;stroke-width:1px;"/>
                <path d="M238.807,548.954C233.443,550.976 220.033,536.908 209.826,529.246C219.89,516.234 231.963,506.568 244.314,497.367C250.117,503.233 255.746,509.796 262.282,512.727C255.275,525.62 248.081,538.327 238.807,548.954Z" style="fill-rule:nonzero;stroke:black;stroke-width:1px;"/>
                <path d="M207.797,526.928C200.629,519.981 195.493,504.504 192.147,488.383C210.362,491.72 224.982,491.463 240.256,491.86L241.995,495.628C229.97,504.937 218.408,514.675 207.797,526.928Z" style="fill-rule:nonzero;stroke:black;stroke-width:1px;"/>
                <path d="M191.857,486.064C189.666,469.819 197.943,457.381 203.74,444.041C216.811,461.078 229.406,472.88 241.706,481.427C240.823,484.035 240.955,487.513 240.836,489.252C225.333,489.424 208.905,488.208 191.857,486.064Z" style="fill-rule:nonzero;stroke:black;stroke-width:1px;"/>
                <path d="M205.769,441.722C214.441,431.243 226.95,425.368 239.387,419.407C242.208,440.235 244.184,459.247 251.559,474.761C248.078,475.818 245.95,477.681 243.155,479.398C231.868,471.539 219.374,458.855 205.769,441.722Z" style="fill-rule:nonzero;stroke:black;stroke-width:1px;"/>
                <path d="M242.285,418.537C254.301,412.911 269.945,414.542 284.019,413.031C281.254,434.053 275.974,457.592 279.671,472.153C268.733,470.706 261.631,472.328 254.457,473.892C246.032,457.936 245.897,437.244 242.285,418.537Z" style="fill-rule:nonzero;stroke:black;stroke-width:1px;"/>
                <path d="M303.313,412.656C297.848,412.661 292.297,412.777 286.625,413.031C283.938,434.547 278.954,459.521 282,472.438C313.086,489.202 346.294,480.393 379.656,469.844C393.825,466.205 409.311,470.072 420.531,469.531C435.252,468.156 460.989,446.085 499.344,443.156L462.25,443.156C450.962,441.455 439.064,440.133 427.938,438.563C427.775,442.561 424.507,445.75 420.469,445.75C416.327,445.75 412.969,442.392 412.969,438.25C412.969,437.529 413.06,436.847 413.25,436.188C404.294,434.501 396.44,432.445 390.656,429.563C414.323,429.968 438.23,427.048 450.375,423.469C400.061,423.139 356.134,412.612 303.313,412.656ZM413.25,436.188C417.89,437.061 422.838,437.843 427.938,438.563C427.942,438.46 427.969,438.354 427.969,438.25C427.969,434.108 424.611,430.75 420.469,430.75C417.047,430.75 414.151,433.056 413.25,436.188L413.25,436.188Z" style="fill-opacity:0.96;fill-rule:nonzero;stroke:black;stroke-width:1px;"/>
                <path d="M412.182,469.487C427.809,505.086 441.443,540.684 451.481,576.283" style="fill:none;fill-rule:nonzero;stroke:black;stroke-width:1.8px;stroke-linecap:round;"/>
                <path d="M422.442,467.836C453.599,491.089 483.022,515.325 509.318,541.335" style="fill:none;fill-rule:nonzero;stroke:black;stroke-width:1.8px;stroke-linecap:round;"/>
                <path d="M431.009,464.104C455.053,478.731 477.759,484.519 498.051,489.869" style="fill:none;fill-rule:nonzero;stroke:black;stroke-width:1.8px;stroke-linecap:round;"/>
                <g transform="matrix(0.964953,0,0,0.916706,15.4191,65.0566)">
                    <path d="M425.682,407.69C425.682,411.003 423.13,413.689 419.982,413.689C416.834,413.689 414.282,411.003 414.282,407.69C414.282,404.376 416.834,401.69 419.982,401.69C423.13,401.69 425.682,404.376 425.682,407.69Z" style="fill-opacity:0.96;fill-rule:nonzero;"/>
                </g>
                <path d="M438.495,461.086C461.369,468.411 481.083,467.622 498.743,467.089" style="fill:none;fill-rule:nonzero;stroke:black;stroke-width:1.8px;stroke-linecap:round;"/>
            </g>
            <g transform="matrix(-0.0146483,-0.0446789,0.0446789,-0.0146483,142.658,804.098)">
                <path d="M301.697,529.246C327.781,518.858 353.864,516.836 379.947,513.017C375.365,520.359 370.369,527.701 361.979,535.043C342.892,542.743 321.233,549.158 299.089,555.33C299.643,546.95 299.698,539.071 301.697,529.246Z" style="fill-rule:nonzero;stroke:black;stroke-width:1px;"/>
                <path d="M297.93,528.957C296.951,537.393 296.404,543.935 296.191,556.199C269.868,563.662 257.388,556.951 242.865,550.403C251.013,539.327 258.473,527.562 264.311,514.176C275.346,520.129 286.167,527.371 297.93,528.957Z" style="fill-rule:nonzero;stroke:black;stroke-width:1px;"/>
                <path d="M238.807,548.954C233.443,550.976 220.033,536.908 209.826,529.246C219.89,516.234 231.963,506.568 244.314,497.367C250.117,503.233 255.746,509.796 262.282,512.727C255.275,525.62 248.081,538.327 238.807,548.954Z" style="fill-rule:nonzero;stroke:black;stroke-width:1px;"/>
                <path d="M207.797,526.928C200.629,519.981 195.493,504.504 192.147,488.383C210.362,491.72 224.982,491.463 240.256,491.86L241.995,495.628C229.97,504.937 218.408,514.675 207.797,526.928Z" style="fill-rule:nonzero;stroke:black;stroke-width:1px;"/>
                <path d="M191.857,486.064C189.666,469.819 197.943,457.381 203.74,444.041C216.811,461.078 229.406,472.88 241.706,481.427C240.823,484.035 240.955,487.513 240.836,489.252C225.333,489.424 208.905,488.208 191.857,486.064Z" style="fill-rule:nonzero;stroke:black;stroke-width:1px;"/>
                <path d="M205.769,441.722C214.441,431.243 226.95,425.368 239.387,419.407C242.208,440.235 244.184,459.247 251.559,474.761C248.078,475.818 245.95,477.681 243.155,479.398C231.868,471.539 219.374,458.855 205.769,441.722Z" style="fill-rule:nonzero;stroke:black;stroke-width:1px;"/>
                <path d="M242.285,418.537C254.301,412.911 269.945,414.542 284.019,413.031C281.254,434.053 275.974,457.592 279.671,472.153C268.733,470.706 261.631,472.328 254.457,473.892C246.032,457.936 245.897,437.244 242.285,418.537Z" style="fill-rule:nonzero;stroke:black;stroke-width:1px;"/>
                <path d="M303.313,412.656C297.848,412.661 292.297,412.777 286.625,413.031C283.938,434.547 278.954,459.521 282,472.438C313.086,489.202 346.294,480.393 379.656,469.844C393.825,466.205 409.311,470.072 420.531,469.531C435.252,468.156 460.989,446.085 499.344,443.156L462.25,443.156C450.962,441.455 439.064,440.133 427.938,438.563C427.775,442.561 424.507,445.75 420.469,445.75C416.327,445.75 412.969,442.392 412.969,438.25C412.969,437.529 413.06,436.847 413.25,436.188C404.294,434.501 396.44,432.445 390.656,429.563C414.323,429.968 438.23,427.048 450.375,423.469C400.061,423.139 356.134,412.612 303.313,412.656ZM413.25,436.188C417.89,437.061 422.838,437.843 427.938,438.563C427.942,438.46 427.969,438.354 427.969,438.25C427.969,434.108 424.611,430.75 420.469,430.75C417.047,430.75 414.151,433.056 413.25,436.188L413.25,436.188Z" style="fill-opacity:0.96;fill-rule:nonzero;stroke:black;stroke-width:1px;"/>
                <path d="M412.182,469.487C427.809,505.086 441.443,540.684 451.481,576.283" style="fill:none;fill-rule:nonzero;stroke:black;stroke-width:1.8px;stroke-linecap:round;"/>
                <path d="M422.442,467.836C453.599,491.089 483.022,515.325 509.318,541.335" style="fill:none;fill-rule:nonzero;stroke:black;stroke-width:1.8px;stroke-linecap:round;"/>
                <path d="M431.009,464.104C455.053,478.731 477.759,484.519 498.051,489.869" style="fill:none;fill-rule:nonzero;stroke:black;stroke-width:1.8px;stroke-linecap:round;"/>
                <g transform="matrix(0.964953,0,0,0.916706,15.4191,65.0566)">
                    <path d="M425.682,407.69C425.682,411.003 423.13,413.689 419.982,413.689C416.834,413.689 414.282,411.003 414.282,407.69C414.282,404.376 416.834,401.69 419.982,401.69C423.13,401.69 425.682,404.376 425.682,407.69Z" style="fill-opacity:0.96;fill-rule:nonzero;"/>
                </g>
                <path d="M438.495,461.086C461.369,468.411 481.083,467.622 498.743,467.089" style="fill:none;fill-rule:nonzero;stroke:black;stroke-width:1.8px;stroke-linecap:round;"/>
            </g>
        </g>
    </g>
</svg>
